<?xml version="1.0" encoding="UTF-8" standalone="no"?><!DOCTYPE svg PUBLIC "-//W3C//DTD SVG 1.1//EN" "http://www.w3.org/Graphics/SVG/1.1/DTD/svg11.dtd"><svg width="100%" height="100%" viewBox="0 0 53 69" version="1.1" xmlns="http://www.w3.org/2000/svg" xmlns:xlink="http://www.w3.org/1999/xlink" xml:space="preserve" style="fill-rule:evenodd;clip-rule:evenodd;stroke-linejoin:round;stroke-miterlimit:1.41421;"><g id="__1"><path d="M38.27,32.86c0,1.487 -1.223,2.71 -2.71,2.71l-18.63,0c-1.487,0 -2.71,-1.223 -2.71,-2.71l-1.62,-30.15c0,-1.487 1.223,-2.71 2.71,-2.71l21.88,0c1.487,0 2.71,1.223 2.71,2.71l-1.63,30.15Z" style="fill:#005a76;fill-rule:nonzero;"/><path d="M49.21,20.43l-4.77,0l-1.63,15.85c0,1.805 -1.485,3.29 -3.29,3.29l-26.52,0c-1.805,0 -3.29,-1.485 -3.29,-3.29l-1.65,-15.85l-4.77,0c-1.801,0 -3.285,1.479 -3.29,3.28l3.79,21c0,1.801 1.479,3.285 3.28,3.29l38.93,0c1.801,-0.005 3.28,-1.489 3.28,-3.29l3.25,-21c-0.005,-1.801 -1.489,-3.28 -3.29,-3.28c-0.01,0 -0.02,0 -0.03,0l0,0Z" style="fill:#005a76;fill-rule:nonzero;"/><path d="M31.31,51.25c0,1.49 -1.9,2.71 -4.25,2.71l-1.62,0c-2.35,0 -4.25,-1.21 -4.25,-2.71l0,-4.4c0,-1.5 1.9,-2.71 4.25,-2.71l1.61,0c2.35,0 4.25,1.21 4.25,2.71l0.01,4.4Z" style="fill:#005a76;fill-rule:nonzero;"/><path d="M14.3,65.42c0,1.69 -1.39,3.08 -3.08,3.08c-1.69,0 -3.08,-1.39 -3.08,-3.08l0,-3.31c0,-0.01 0,-0.02 0,-0.03c0,-1.69 1.39,-3.08 3.08,-3.08c0,0 0,0 0,0c1.69,0 3.08,1.39 3.08,3.08l0,3.34Z" style="fill:#005a76;fill-rule:nonzero;"/><path d="M29.32,65.42c0,1.69 -1.39,3.08 -3.08,3.08c-1.69,0 -3.08,-1.39 -3.08,-3.08l0,-3.31c0,-0.01 0,-0.02 0,-0.03c0,-1.69 1.39,-3.08 3.08,-3.08c0.003,0 0.007,0 0.01,0c1.69,0 3.08,1.39 3.08,3.08l-0.01,3.34Z" style="fill:#005a76;fill-rule:nonzero;"/><path d="M44.59,65.42c0,1.69 -1.39,3.08 -3.08,3.08c-1.69,0 -3.08,-1.39 -3.08,-3.08l0,-3.31c0,-0.01 0,-0.02 0,-0.03c0,-1.69 1.39,-3.08 3.08,-3.08c0.003,0 0.007,0 0.01,0c1.69,0 3.08,1.39 3.08,3.08l-0.01,3.34Z" style="fill:#005a76;fill-rule:nonzero;"/><path d="M22.856,49.844l-13.032,11.04l2.799,3.304l13.032,-11.04l-2.799,-3.304Z" style="fill:#005a76;"/><path d="M29.635,49.847l-2.799,3.304l13.033,11.04l2.798,-3.304l-13.032,-11.04Z" style="fill:#005a76;"/><rect x="24.08" y="51.5" width="4.33" height="12.27" style="fill:#005a76;"/></g></svg>