<?xml version="1.0" encoding="UTF-8" standalone="no"?><!DOCTYPE svg PUBLIC "-//W3C//DTD SVG 1.1//EN" "http://www.w3.org/Graphics/SVG/1.1/DTD/svg11.dtd"><svg width="100%" height="100%" viewBox="0 0 97 66" version="1.1" xmlns="http://www.w3.org/2000/svg" xmlns:xlink="http://www.w3.org/1999/xlink" xml:space="preserve" style="fill-rule:evenodd;clip-rule:evenodd;stroke-linejoin:round;stroke-miterlimit:1.41421;"><g id="__1"><path d="M96,13.81l-8.49,-8.45l0.08,-0.08l-3.86,-4.35c-2.57,-2.09 -5.47,0 -5.47,0c0,0 -51,50.87 -53,53c-2,2.13 -8,9.08 -3.06,11.34c4.94,2.26 13,-3.38 16.9,-12.55c3.17,-7.52 22.15,-22.89 24.24,-23.49l8.57,8.57c0.243,0.25 0.577,0.391 0.925,0.391c0.708,0 1.291,-0.583 1.291,-1.291c0,-0.336 -0.132,-0.659 -0.366,-0.9l-8.31,-8.31l1.87,-1.89l8.32,8.32c0.235,0.204 0.536,0.317 0.847,0.317c0.708,0 1.29,-0.582 1.29,-1.29c0,-0.311 -0.113,-0.612 -0.317,-0.847l-8.33,-8.3l1.87,-1.9l8.34,8.34c0.235,0.204 0.536,0.317 0.847,0.317c0.708,0 1.29,-0.582 1.29,-1.29c0,-0.311 -0.113,-0.612 -0.317,-0.847l-8.36,-8.36l1.87,-1.89l8.33,8.37c0.235,0.204 0.536,0.317 0.847,0.317c0.708,0 1.29,-0.582 1.29,-1.29c0,-0.311 -0.113,-0.612 -0.317,-0.847l-8.38,-8.38l1.87,-1.89l8.44,8.35c0.235,0.204 0.536,0.317 0.847,0.317c0.708,0 1.29,-0.582 1.29,-1.29c0,-0.311 -0.113,-0.612 -0.317,-0.847l-8.41,-8.41l1.84,-1.85l8.42,8.42c0.245,0.281 0.6,0.443 0.973,0.443c0.708,0 1.29,-0.582 1.29,-1.29c0,-0.373 -0.162,-0.728 -0.443,-0.973l-8.4,-8.44l1.87,-1.89l8.44,8.44c0.244,0.248 0.577,0.388 0.925,0.388c0.712,0 1.298,-0.586 1.298,-1.298c0,-0.34 -0.134,-0.667 -0.373,-0.91l0,0Z" style="fill:#005a76;fill-rule:nonzero;"/><path d="M0.38,13.81l8.45,-8.45l-0.08,-0.08l3.87,-4.35c2.57,-2.09 5.47,0 5.47,0c0,0 51,50.87 53,53c2,2.13 8,9.08 3.06,11.34c-4.94,2.26 -13,-3.38 -16.9,-12.55c-3.2,-7.48 -22.18,-22.85 -24.25,-23.45l-8.57,8.57c-0.244,0.244 -0.575,0.381 -0.92,0.381c-0.714,0 -1.301,-0.587 -1.301,-1.301c0,-0.345 0.137,-0.676 0.381,-0.92l8.31,-8.31l-1.9,-1.87l-8.32,8.32c-0.245,0.281 -0.6,0.443 -0.973,0.443c-0.708,0 -1.29,-0.582 -1.29,-1.29c0,-0.373 0.162,-0.728 0.443,-0.973l8.36,-8.32l-1.87,-1.9l-8.35,8.34c-0.245,0.281 -0.6,0.443 -0.973,0.443c-0.708,0 -1.29,-0.582 -1.29,-1.29c0,-0.373 0.162,-0.728 0.443,-0.973l8.36,-8.36l-1.87,-1.89l-8.37,8.37c-0.235,0.204 -0.536,0.317 -0.847,0.317c-0.708,0 -1.29,-0.582 -1.29,-1.29c0,-0.311 0.113,-0.612 0.317,-0.847l8.38,-8.38l-1.86,-1.9l-8.4,8.36c-0.235,0.204 -0.536,0.317 -0.847,0.317c-0.708,0 -1.29,-0.582 -1.29,-1.29c0,-0.311 0.113,-0.612 0.317,-0.847l8.41,-8.41l-1.87,-1.89l-8.42,8.45c-0.235,0.204 -0.536,0.317 -0.847,0.317c-0.708,0 -1.29,-0.582 -1.29,-1.29c0,-0.311 0.113,-0.612 0.317,-0.847l8.43,-8.43l-1.87,-1.89l-8.44,8.44c-0.235,0.204 -0.536,0.317 -0.847,0.317c-0.708,0 -1.29,-0.582 -1.29,-1.29c0,-0.311 0.113,-0.612 0.317,-0.847l0,0Z" style="fill:#005a76;fill-rule:nonzero;"/></g></svg>