<?xml version="1.0" encoding="UTF-8" standalone="no"?><!DOCTYPE svg PUBLIC "-//W3C//DTD SVG 1.1//EN" "http://www.w3.org/Graphics/SVG/1.1/DTD/svg11.dtd"><svg width="100%" height="100%" viewBox="0 0 60 45" version="1.1" xmlns="http://www.w3.org/2000/svg" xmlns:xlink="http://www.w3.org/1999/xlink" xml:space="preserve" style="fill-rule:evenodd;clip-rule:evenodd;stroke-linejoin:round;stroke-miterlimit:1.41421;"><g id="__1"><path d="M59,0.87l-7.28,0l0,-0.07l-3.56,-0.21c-1.224,0.204 -2.182,1.182 -2.36,2.41c-0.178,1.228 -0.14,32.88 0,34.66c0.14,1.78 0.45,7.42 3.59,6.23c3.14,-1.19 4.18,-7.11 1.88,-12.75c-1.309,-3.037 -1.165,-6.511 0.39,-9.43l7.34,0c0.433,0 0.79,-0.357 0.79,-0.79c0,-0.433 -0.357,-0.79 -0.79,-0.79l-7.15,0l0,-1.66l7.15,0c0.433,0 0.79,-0.357 0.79,-0.79c0,-0.433 -0.357,-0.79 -0.79,-0.79c0,0 -7.17,0 -7.17,0l0,-1.62l7.17,0c0.433,0 0.79,-0.357 0.79,-0.79c0,-0.433 -0.357,-0.79 -0.79,-0.79l-7.2,0l0,-1.63l7.2,0c0.433,0 0.79,-0.357 0.79,-0.79c0,-0.433 -0.357,-0.79 -0.79,-0.79l-7.22,0l0,-1.62l7.22,0c0.433,0 0.79,-0.357 0.79,-0.79c0,-0.433 -0.357,-0.79 -0.79,-0.79l-7.24,0l0,-1.63l7.24,0c0.433,0 0.79,-0.357 0.79,-0.79c0,-0.433 -0.357,-0.79 -0.79,-0.79l-7.3,0l0,-1.62l7.3,0c0.433,0 0.79,-0.357 0.79,-0.79c0,-0.433 -0.357,-0.79 -0.79,-0.79l0,0Z" style="fill:#005a76;fill-rule:nonzero;"/><path d="M40,38c-0.65,-3 -5.53,-7.85 -5.53,-7.85c-7.47,-7.09 -8.84,-8.09 -11.3,-10.89c1.35,-2.27 3.28,-5.45 4.57,-7.39c0,0 0.51,-0.65 1.16,0.07c0,0 5.13,5.2 10,-1.08c0,0 3.9,-6.22 -2,-10.12c0,0 -6.58,-3.4 -9.83,4.34c0,0 -2.47,4.92 -3.77,6.94c-0.814,1.46 -1.892,2.755 -3.18,3.82c-1.311,-1.066 -2.41,-2.368 -3.24,-3.84c-1.3,-2 -3.77,-6.94 -3.77,-6.94c-3.25,-7.71 -9.82,-4.32 -9.82,-4.32c-5.93,3.9 -2,10.12 -2,10.12c4.84,6.29 10,1.08 10,1.08c0.65,-0.72 1.16,-0.07 1.16,-0.07c1.23,1.94 3.16,5.13 4.55,7.39c-2.47,2.79 -4.12,3.88 -11.63,11.25c0,0 -4.56,4.57 -5.21,7.53c-0.377,2.191 0.114,4.445 1.37,6.28l18.53,-19.63l18.58,19.64c1.264,-1.85 1.753,-4.124 1.36,-6.33Zm-7.92,-34.84c0.479,-0.195 0.992,-0.296 1.51,-0.296c1.628,0 3.102,0.995 3.71,2.506c0.147,0.422 0.222,0.866 0.222,1.313c0,1.708 -1.095,3.237 -2.712,3.787c-0.482,0.198 -0.997,0.299 -1.518,0.299c-1.63,0 -3.104,-0.996 -3.712,-2.509c-0.146,-0.421 -0.221,-0.864 -0.221,-1.31c0,-1.712 1.099,-3.243 2.721,-3.79l0,0Zm-21.54,5.1c-0.608,1.513 -2.082,2.509 -3.712,2.509c-0.521,0 -1.036,-0.101 -1.518,-0.299c-1.617,-0.55 -2.712,-2.079 -2.712,-3.787c0,-0.447 0.075,-0.891 0.222,-1.313c0.608,-1.513 2.082,-2.509 3.712,-2.509c0.521,0 1.036,0.101 1.518,0.299c1.617,0.55 2.712,2.079 2.712,3.787c0,0.447 -0.075,0.891 -0.222,1.313l0,0Z" style="fill:#005a76;fill-rule:nonzero;"/></g></svg>