<?xml version="1.0" encoding="UTF-8" standalone="no"?><!DOCTYPE svg PUBLIC "-//W3C//DTD SVG 1.1//EN" "http://www.w3.org/Graphics/SVG/1.1/DTD/svg11.dtd"><svg width="100%" height="100%" viewBox="0 0 66 89" version="1.1" xmlns="http://www.w3.org/2000/svg" xmlns:xlink="http://www.w3.org/1999/xlink" xml:space="preserve" style="fill-rule:evenodd;clip-rule:evenodd;stroke-linejoin:round;stroke-miterlimit:1.41421;"><g id="__1"><path d="M24.25,45l0.1,-0.37l0.88,-3.41l-0.89,-10.22l-20.82,0c-1.851,-0.067 -3.434,1.39 -3.52,3.24l0,20c0.068,1.71 1.432,3.109 3.14,3.22l0,-21.78l4.37,0l0,21.83l3.56,0l0,-21.83l4.37,0l0,21.83l3.56,0l0,-21.83l4.37,0l0,15.42c0.489,-1.882 0.787,-3.808 0.89,-5.75l-0.01,-0.35Z" style="fill:#005a76;fill-rule:nonzero;"/><path d="M62.32,31l-20.82,0l-0.88,10.15l0.88,3.46l0.09,0.36l0,0.36c0.102,1.945 0.401,3.875 0.89,5.76l0,-15.41l4.37,0l0,21.83l3.56,0l0,-21.83l4.37,0l0,21.83l3.56,0l0,-21.83l4.36,0l0,21.81c1.708,-0.111 3.072,-1.51 3.14,-3.22l0,-20c-0.07,-1.862 -1.658,-3.337 -3.52,-3.27l0,0Z" style="fill:#005a76;fill-rule:nonzero;"/><path d="M55.46,76.86c-0.519,-4.447 -3.906,-8.057 -8.31,-8.86c-2.367,-3.248 -4.312,-6.783 -5.79,-10.52c-1.134,-2.852 -1.952,-5.82 -2.44,-8.85c-0.186,-1.094 -0.297,-2.2 -0.33,-3.31l-1,-4l0.5,-5.72l0.4,-4.6l2.51,-29l-2,-2l-6,23.25l-5.94,-23.25l-2.22,2l2.51,29l0.41,4.68l0.5,5.77l-1,3.9c-0.03,1.106 -0.137,2.209 -0.32,3.3c-0.488,3.03 -1.306,5.998 -2.44,8.85c-1.486,3.731 -3.438,7.259 -5.81,10.5c-4.395,0.8 -7.778,4.395 -8.31,8.83c-0.83,5.65 2.62,10.83 7.72,11.58c0.414,0.06 0.832,0.091 1.25,0.09c4.65,0 8.73,-3.83 9.48,-8.92c0.625,-3.812 -0.918,-7.671 -4,-10c0.35,-3.567 1.411,-7.029 3.12,-10.18c1.29,-2.15 2.24,-4.18 3.34,-5.87c0.468,-0.743 1.014,-1.434 1.63,-2.06c0.616,0.626 1.162,1.317 1.63,2.06c1.1,1.69 2.05,3.72 3.34,5.87c1.701,3.14 2.758,6.587 3.11,10.14c-0.955,0.685 -1.772,1.543 -2.41,2.53c-1.431,2.227 -1.997,4.904 -1.59,7.52c0.75,5.08 4.83,8.92 9.48,8.92c0.418,0.001 0.836,-0.029 1.25,-0.09c2.528,-0.382 4.769,-1.842 6.14,-4c1.442,-2.238 2.008,-4.931 1.59,-7.56l0,0Zm-30,2.23c-0.51,3.43 -3.14,6 -6.12,6c-0.251,-0.002 -0.502,-0.022 -0.75,-0.06c-3.23,-0.48 -5.41,-3.93 -4.85,-7.7c0.51,-3.43 3.14,-6 6.12,-6c0.251,0.002 0.502,0.022 0.75,0.06c3.23,0.48 5.39,3.94 4.85,7.7Zm9.08,-33.51c-0.36,0.548 -0.974,0.88 -1.63,0.88c-1.07,0 -1.95,-0.881 -1.95,-1.95c0,-1.07 0.88,-1.95 1.95,-1.95c1.066,0 1.945,0.874 1.95,1.94c0.002,0.382 -0.106,0.757 -0.31,1.08l-0.01,0Zm16.46,36.95c-0.837,1.352 -2.221,2.276 -3.79,2.53c-0.248,0.038 -0.499,0.058 -0.75,0.06c-3,0 -5.61,-2.59 -6.12,-6c-0.29,-1.794 0.087,-3.635 1.06,-5.17c0.837,-1.352 2.221,-2.276 3.79,-2.53c0.248,-0.038 0.499,-0.058 0.75,-0.06c3,0 5.61,2.59 6.12,6c0.291,1.794 -0.086,3.635 -1.06,5.17l0,0Z" style="fill:#005a76;fill-rule:nonzero;"/></g></svg>