<?xml version="1.0" encoding="UTF-8" standalone="no"?><!DOCTYPE svg PUBLIC "-//W3C//DTD SVG 1.1//EN" "http://www.w3.org/Graphics/SVG/1.1/DTD/svg11.dtd"><svg width="100%" height="100%" viewBox="0 0 59 50" version="1.1" xmlns="http://www.w3.org/2000/svg" xmlns:xlink="http://www.w3.org/1999/xlink" xml:space="preserve" style="fill-rule:evenodd;clip-rule:evenodd;stroke-linejoin:round;stroke-miterlimit:1.41421;"><g id="__1"><path d="M19.38,0.59c-1.369,-0.396 -2.787,-0.596 -4.212,-0.596c-8.322,0 -15.17,6.848 -15.17,15.17c0,4.377 1.895,8.547 5.192,11.426c-0.083,2.969 -0.785,5.888 -2.06,8.57c-2.89,5.78 0.15,13 1.83,14.45l11.9,0l0,-12l6,-3.85l0.64,-5.13l20.31,-5.71l0,-15.45l-24.43,-6.88Zm-4.21,6.88c4.23,0 7.71,3.48 7.71,7.71c0,4.23 -3.48,7.71 -7.71,7.71c-4.23,0 -7.71,-3.48 -7.71,-7.71c0,-4.23 3.48,-7.71 7.71,-7.71l0,0Z" style="fill:#005a76;fill-rule:nonzero;"/><path d="M49.65,11.63c-1.136,0.063 -2.261,-0.269 -3.18,-0.94l1.59,-1.85c0.05,0 1.33,0.94 4.35,-0.19c4.62,-1.73 6.32,0.52 6.49,0.78l-2,1.38l0,0.05c0,0 -0.88,-1 -3.66,0.08c-1.145,0.444 -2.362,0.678 -3.59,0.69l0,0Z" style="fill:#005a76;fill-rule:nonzero;"/><path d="M49.65,17c-1.144,0.046 -2.268,-0.308 -3.18,-1l1.59,-1.85c0.05,0 1.33,0.94 4.35,-0.19c4.62,-1.73 6.32,0.52 6.49,0.78l-2,1.38l0,0.05c0,0 -0.88,-1 -3.66,0.08c-1.142,0.464 -2.358,0.719 -3.59,0.75Z" style="fill:#005a76;fill-rule:nonzero;"/><path d="M49.65,22.33c-1.136,0.063 -2.261,-0.269 -3.18,-0.94l1.59,-1.85c0.05,0 1.33,0.94 4.35,-0.19c4.62,-1.73 6.32,0.51 6.49,0.78l-2,1.38l0,0.05c0,0 -0.88,-1 -3.66,0.08c-1.145,0.444 -2.362,0.678 -3.59,0.69l0,0Z" style="fill:#005a76;fill-rule:nonzero;"/></g></svg>