<?xml version="1.0" encoding="UTF-8" standalone="no"?><!DOCTYPE svg PUBLIC "-//W3C//DTD SVG 1.1//EN" "http://www.w3.org/Graphics/SVG/1.1/DTD/svg11.dtd"><svg width="100%" height="100%" viewBox="0 0 59 50" version="1.1" xmlns="http://www.w3.org/2000/svg" xmlns:xlink="http://www.w3.org/1999/xlink" xml:space="preserve" style="fill-rule:evenodd;clip-rule:evenodd;stroke-linejoin:round;stroke-miterlimit:1.41421;"><g id="__1"><path d="M15.17,3c1.14,0.002 2.275,0.163 3.37,0.48l2.37,0.68l19.91,5.6l0,10.84l-18.11,5.1l-1.92,0.54l-0.25,2l-0.47,3.73l-4.83,3.03l-1.38,0.89l0,10.72l-7.42,0c-1,-1.87 -2.47,-6.42 -0.62,-10.11c1.459,-3.064 2.266,-6.398 2.37,-9.79l0.06,-1.44l-1.08,-0.95c-2.634,-2.31 -4.146,-5.647 -4.146,-9.15c0,-6.667 5.479,-12.157 12.146,-12.17m0,20.74c4.701,0 8.57,-3.869 8.57,-8.57c0,-4.701 -3.869,-8.57 -8.57,-8.57c-4.701,0 -8.57,3.869 -8.57,8.57c0.005,4.699 3.871,8.565 8.57,8.57m0,-23.74c-0.005,0 -0.01,0 -0.014,0c-8.322,0 -15.17,6.848 -15.17,15.17c0,4.374 1.891,8.541 5.184,11.42c-0.083,2.969 -0.785,5.888 -2.06,8.57c-2.89,5.78 0.15,13 1.83,14.45l11.92,0l0,-12l6,-3.85l0.64,-5.13l20.31,-5.71l0,-15.45l-24.43,-6.88c-1.369,-0.393 -2.786,-0.592 -4.21,-0.59l0,0Zm0,20.74c-3.056,0 -5.57,-2.514 -5.57,-5.57c0,-3.056 2.514,-5.57 5.57,-5.57c3.056,0 5.57,2.514 5.57,5.57c0,3.056 -2.514,5.57 -5.57,5.57l0,0Z" style="fill:#005a76;fill-rule:nonzero;"/><path d="M49.65,11.63c-1.136,0.063 -2.261,-0.269 -3.18,-0.94l1.59,-1.85c0.05,0 1.33,0.94 4.35,-0.19c4.62,-1.73 6.32,0.52 6.49,0.78l-2,1.38l0,0.05c0,0 -0.88,-1 -3.66,0.08c-1.145,0.444 -2.362,0.678 -3.59,0.69l0,0Z" style="fill:#005a76;fill-rule:nonzero;"/><path d="M49.65,17c-1.144,0.046 -2.268,-0.308 -3.18,-1l1.59,-1.85c0.05,0 1.33,0.94 4.35,-0.19c4.62,-1.73 6.32,0.52 6.49,0.78l-2,1.38l0,0.05c0,0 -0.88,-1 -3.66,0.08c-1.142,0.464 -2.358,0.719 -3.59,0.75Z" style="fill:#005a76;fill-rule:nonzero;"/><path d="M49.65,22.33c-1.136,0.063 -2.261,-0.269 -3.18,-0.94l1.59,-1.85c0.05,0 1.33,0.94 4.35,-0.19c4.62,-1.73 6.32,0.51 6.49,0.78l-2,1.38l0,0.05c0,0 -0.88,-1 -3.66,0.08c-1.145,0.444 -2.362,0.678 -3.59,0.69l0,0Z" style="fill:#005a76;fill-rule:nonzero;"/></g></svg>