<?xml version="1.0" encoding="UTF-8" standalone="no"?><!DOCTYPE svg PUBLIC "-//W3C//DTD SVG 1.1//EN" "http://www.w3.org/Graphics/SVG/1.1/DTD/svg11.dtd"><svg width="100%" height="100%" viewBox="0 0 68 68" version="1.1" xmlns="http://www.w3.org/2000/svg" xmlns:xlink="http://www.w3.org/1999/xlink" xml:space="preserve" style="fill-rule:evenodd;clip-rule:evenodd;stroke-linejoin:round;stroke-miterlimit:1.41421;"><g id="__1"><path d="M49.38,31.67c0.992,-0.985 1.871,-2.079 2.62,-3.26l0,-13.41c-0.85,-0.8 -1.879,-1.386 -3,-1.71l0,18.78l0.38,-0.4Z" style="fill:#005a76;fill-rule:nonzero;"/><path d="M38.84,15.28l0,21.36c2.25,-0.096 4.445,-0.73 6.4,-1.85l0,-21.79c-2.28,0.258 -4.47,1.039 -6.4,2.28l0,0Z" style="fill:#005a76;fill-rule:nonzero;"/><path d="M62.43,4.83c-8.11,-8.12 -23.62,-5.76 -34.64,5.25c-11.02,11.01 -13.37,26.53 -5.25,34.64c8.12,8.11 23.62,5.76 34.64,-5.26c11.02,-11.02 13.37,-26.52 5.25,-34.63Zm-33.43,33.4c-5.47,-5.47 -3.88,-15.93 3.54,-23.35c7.42,-7.42 17.88,-9 23.36,-3.54c5.48,5.46 3.88,15.93 -3.54,23.35c-7.42,7.42 -17.86,9.01 -23.36,3.54Z" style="fill:#005a76;fill-rule:nonzero;"/><path d="M16.07,62.25c-6.4,6.4 -10.83,5.88 -13.88,2.83c-3.05,-3.05 -3.58,-7.49 2.81,-13.89c6.39,-6.4 14.06,-9.12 17.12,-6.06c3.06,3.06 0.35,10.71 -6.05,17.12Z" style="fill:#005a76;fill-rule:nonzero;"/><path d="M21.38,55.24c0,0 2.43,-5.94 8.8,-6.24l-5.94,-6l-7.54,7.56l4.68,4.68Z" style="fill:#005a76;fill-rule:nonzero;"/><path d="M12,45.88c0,0 5.93,-2.42 6.27,-8.79l5.97,5.91l-7.54,7.56l-4.7,-4.68Z" style="fill:#005a76;fill-rule:nonzero;"/></g></svg>