<?xml version="1.0" encoding="UTF-8" standalone="no"?><!DOCTYPE svg PUBLIC "-//W3C//DTD SVG 1.1//EN" "http://www.w3.org/Graphics/SVG/1.1/DTD/svg11.dtd"><svg width="100%" height="100%" viewBox="0 0 83 24" version="1.1" xmlns="http://www.w3.org/2000/svg" xmlns:xlink="http://www.w3.org/1999/xlink" xml:space="preserve" style="fill-rule:evenodd;clip-rule:evenodd;stroke-linejoin:round;stroke-miterlimit:1.41421;"><path id="moustache" d="M41.3,3.23c-1.68,-2 -4.88,-4.46 -11.49,-2.53c-9.17,2.68 -9.86,11.08 -16.57,14.74c-6.71,3.66 -11.09,-1.21 -9.36,-7.21c0,0 1.32,3.36 5.29,1.73c3.97,-1.63 2,-5.9 0.81,-6.91c-1.19,-1.01 -6.41,-1.74 -9.05,4.16c-2.64,5.9 0.07,15.66 11.49,16.27c10.65,0.52 23.58,-2.95 28.88,-11.29c5.29,8.34 18.22,11.81 28.88,11.29c11.39,-0.61 14.13,-10.37 11.49,-16.27c-2.64,-5.9 -7.83,-5.21 -9.05,-4.21c-1.22,1 -3.15,5.29 0.81,6.91c3.96,1.62 5.29,-1.73 5.29,-1.73c1.73,6 -2.64,10.88 -9.35,7.22c-6.71,-3.66 -7.37,-12.02 -16.58,-14.7c-6.61,-1.93 -9.79,0.53 -11.49,2.53Z" style="fill:#005a76;fill-rule:nonzero;"/></svg>