<?xml version="1.0" encoding="UTF-8" standalone="no"?><!DOCTYPE svg PUBLIC "-//W3C//DTD SVG 1.1//EN" "http://www.w3.org/Graphics/SVG/1.1/DTD/svg11.dtd"><svg width="100%" height="100%" viewBox="0 0 75 91" version="1.1" xmlns="http://www.w3.org/2000/svg" xmlns:xlink="http://www.w3.org/1999/xlink" xml:space="preserve" style="fill-rule:evenodd;clip-rule:evenodd;stroke-linejoin:round;stroke-miterlimit:1.41421;"><g id="__1"><path d="M36.22,79.91c-5.24,-2 -7.66,-8.47 -5.39,-14.44c2.27,-5.97 8.38,-9.19 13.62,-7.19c5.24,2 7.66,8.47 5.39,14.44c-2.27,5.97 -8.38,9.19 -13.62,7.19Zm7.07,-18.55c-3.54,-1.35 -7.74,1 -9.37,5.29c-1.63,4.29 -0.06,8.83 3.48,10.18c3.54,1.35 7.74,-1 9.37,-5.29c1.63,-4.29 0.06,-8.83 -3.49,-10.18l0.01,0Z" style="fill:#005a76;fill-rule:nonzero;"/><path d="M3.09,60.63c-4.18,-3.74 -4.09,-10.63 0.14,-15.41c4.23,-4.78 11.12,-5.58 15.3,-1.84c4.18,3.74 4.12,10.62 -0.14,15.41c-4.26,4.79 -11.12,5.58 -15.3,1.84Zm13.24,-14.79c-2.82,-2.53 -7.6,-1.84 -10.64,1.58c-3.04,3.42 -3.22,8.22 -0.4,10.75c2.82,2.53 7.6,1.82 10.64,-1.58c3.04,-3.4 3.23,-8.22 0.4,-10.75Z" style="fill:#005a76;fill-rule:nonzero;"/><path d="M21.84,47.55c3.85,-3.1 10.5,-5.77 14.75,-7.12c0.51,-3.24 -1.23,-5.34 -1.18,-6.83c-0.83,0.7 -1.57,1.31 -2.19,1.8c-9.2,7.28 -22,6.32 -22,6.32l5.78,2.69l3,4.92c0,-0.81 -4.08,2.98 1.84,-1.78Z" style="fill:#005a76;fill-rule:nonzero;"/><path d="M39.07,59.88l-0.63,0c0.184,0.145 0.446,0.145 0.63,0Z" style="fill:#005a76;fill-rule:nonzero;"/><path d="M49.62,72.63c-2.069,2.472 -3.517,5.404 -4.22,8.55c-0.81,4.65 1.91,9.26 1.91,9.26l-5,-1.9l-4.4,-9.25l4.74,-1.11l6.97,-5.55Z" style="fill:#005a76;fill-rule:nonzero;"/><path d="M19.84,55.57l1.68,1.5l-4.97,5.56l-2.12,-1.89l5.41,-5.17Z" style="fill:#005a76;fill-rule:nonzero;"/><path d="M47.43,38.19c11.8,-8.76 26.9,-21.19 26.9,-21.19l-24.21,9.42l-2.69,11.77Z" style="fill:#005a76;fill-rule:nonzero;"/><path d="M45.37,41.75c2.24,-11.52 9.63,-41.75 9.63,-41.75l-18.2,32.21c0,0 5.38,13.59 3,25.22c-0.22,1.07 -0.37,1.86 -0.48,2.46l5.48,0.36l5,3.93c0,0 -6.67,-10.92 -4.43,-22.43Zm-3.75,-7.87c-0.726,-0.278 -1.208,-0.979 -1.208,-1.756c0,-1.031 0.849,-1.88 1.88,-1.88c1.031,0 1.88,0.849 1.88,1.88c0,0.228 -0.041,0.453 -0.122,0.666c-0.276,0.729 -0.978,1.214 -1.758,1.214c-0.23,0 -0.458,-0.042 -0.672,-0.124Z" style="fill:#005a76;fill-rule:nonzero;"/><path d="M39.28,60.17c-0.42,2.34 0,0.74 0,0Z" style="fill:#005a76;fill-rule:nonzero;"/><path d="M39.07,59.88l0.13,0c-0.037,-0.032 -0.093,-0.032 -0.13,0Z" style="fill:#005a76;fill-rule:nonzero;"/><path d="M39.28,60.17l0.05,-0.28l-0.13,0c0.056,0.082 0.084,0.18 0.08,0.28Z" style="fill:#005a76;fill-rule:nonzero;"/></g></svg>