<?xml version="1.0" encoding="UTF-8" standalone="no"?><!DOCTYPE svg PUBLIC "-//W3C//DTD SVG 1.1//EN" "http://www.w3.org/Graphics/SVG/1.1/DTD/svg11.dtd"><svg width="100%" height="100%" viewBox="0 0 47 66" version="1.1" xmlns="http://www.w3.org/2000/svg" xmlns:xlink="http://www.w3.org/1999/xlink" xml:space="preserve" style="fill-rule:evenodd;clip-rule:evenodd;stroke-linejoin:round;stroke-miterlimit:1.41421;"><g id="__1"><ellipse cx="38.61" cy="5.44" rx="7.41" ry="5.44" style="fill:#005a76;"/><path d="M27.41,7.48c1.19,-0.33 0.9,-1.2 1,-2.26c0.14,-1.38 0.51,-1.87 0.14,-2c-0.745,-0.276 -1.527,-0.438 -2.32,-0.48c-0.715,0.032 -1.408,-0.262 -1.88,-0.8c-0.35,-0.57 -1.76,-0.82 -3.14,-0.56c-1.38,0.26 -2.17,0.2 -2,1c0.137,1.419 -0.016,2.852 -0.45,4.21c-0.494,0.413 -0.705,1.078 -0.54,1.7c0.18,1 0.48,2.65 0.9,2.61c1.64,-0.255 3.31,-0.255 4.95,0c0.86,0.26 1.13,-0.92 1.14,-1.57c0.01,-0.65 1.01,-1.51 2.2,-1.85Z" style="fill:#005a76;fill-rule:nonzero;"/><path d="M16,21.06c3.77,-1.035 7.75,-1.035 11.52,0l0,-7c0,0 -5.17,-3.88 -11.86,0l0,7l0.34,0Z" style="fill:#005a76;fill-rule:nonzero;"/><path d="M21.62,22.36c-0.003,0 -0.007,0 -0.01,0c-11.86,0 -21.62,9.76 -21.62,21.62c0,11.86 9.76,21.62 21.62,21.62c11.853,0 21.609,-9.747 21.62,-21.6c0,-11.86 -9.75,-21.624 -21.61,-21.64Zm15.82,26.84l-0.2,0l-31.45,0c-1.263,-3.806 -1.103,-7.943 0.45,-11.64l30.76,0c1.559,3.702 1.719,7.848 0.45,11.66l-0.01,-0.02Z" style="fill:#005a76;fill-rule:nonzero;"/></g></svg>