<?xml version="1.0" encoding="UTF-8" standalone="no"?><!DOCTYPE svg PUBLIC "-//W3C//DTD SVG 1.1//EN" "http://www.w3.org/Graphics/SVG/1.1/DTD/svg11.dtd"><svg width="100%" height="100%" viewBox="0 0 70 69" version="1.1" xmlns="http://www.w3.org/2000/svg" xmlns:xlink="http://www.w3.org/1999/xlink" xml:space="preserve" style="fill-rule:evenodd;clip-rule:evenodd;stroke-linejoin:round;stroke-miterlimit:1.41421;"><g id="__1"><path d="M30.49,22.33c0.54,-1.65 1.42,-1.65 2,0l4.34,13.35c0.656,1.734 2.288,2.917 4.14,3l14.03,0c1.74,0 2,0.84 0.6,1.86l-11.4,8.25c-1.449,1.156 -2.072,3.073 -1.58,4.86l4.38,13.35c0.54,1.65 -0.17,2.17 -1.58,1.15l-11.42,-8.25c-1.548,-1.018 -3.562,-1.018 -5.11,0l-11.33,8.25c-1.41,1 -2.12,0.5 -1.58,-1.15l4.34,-13.35c0.492,-1.787 -0.131,-3.704 -1.58,-4.86l-11.36,-8.25c-1.41,-1 -1.13,-1.86 0.6,-1.86l14.02,0c1.852,-0.083 3.484,-1.266 4.14,-3l4.35,-13.35Z" style="fill:#005a76;fill-rule:nonzero;"/><path d="M53.86,0.74c0.32,-1 0.85,-1 1.17,0l2.6,8c0.391,1.041 1.37,1.751 2.48,1.8l8.4,0c1,0 1.2,0.5 0.36,1.11l-6.8,4.94c-0.869,0.691 -1.243,1.839 -0.95,2.91l2.6,8c0.32,1 -0.1,1.3 -0.95,0.69l-6.77,-4.96c-0.926,-0.611 -2.134,-0.611 -3.06,0l-6.8,4.94c-0.84,0.61 -1.27,0.3 -0.95,-0.69l2.6,-8c0.296,-1.069 -0.075,-2.216 -0.94,-2.91l-6.85,-4.93c-0.84,-0.61 -0.68,-1.11 0.36,-1.11l8.4,0c1.11,-0.049 2.089,-0.759 2.48,-1.8l2.62,-7.99Z" style="fill:#005a76;fill-rule:nonzero;"/><path d="M10.19,8.82c0.23,-0.7 0.6,-0.7 0.83,0l1.84,5.66c0.284,0.728 0.97,1.226 1.75,1.27l6,0c0.74,0 0.85,0.35 0.26,0.79l-4.87,3.46c-0.607,0.495 -0.87,1.303 -0.67,2.06l1.84,5.66c0.23,0.7 -0.07,0.92 -0.67,0.49l-4.82,-3.5c-0.659,-0.426 -1.511,-0.426 -2.17,0l-4.81,3.55c-0.6,0.43 -0.9,0.21 -0.67,-0.49l1.84,-5.66c0.221,-0.773 -0.044,-1.607 -0.67,-2.11l-4.82,-3.45c-0.6,-0.43 -0.48,-0.79 0.26,-0.79l6,0c0.784,-0.04 1.475,-0.539 1.76,-1.27l1.79,-5.67Z" style="fill:#005a76;fill-rule:nonzero;"/></g></svg>