<?xml version="1.0" encoding="UTF-8" standalone="no"?><!DOCTYPE svg PUBLIC "-//W3C//DTD SVG 1.1//EN" "http://www.w3.org/Graphics/SVG/1.1/DTD/svg11.dtd"><svg width="100%" height="100%" viewBox="0 0 61 74" version="1.1" xmlns="http://www.w3.org/2000/svg" xmlns:xlink="http://www.w3.org/1999/xlink" xml:space="preserve" style="fill-rule:evenodd;clip-rule:evenodd;stroke-linejoin:round;stroke-miterlimit:1.41421;"><g id="__1"><path d="M47.77,14.76c0,0.06 0,0.11 0,0.17c0,4.7 -1.94,8.32 -5.6,10.46c-2.84,1.67 -6.71,2.47 -11.81,2.47c-5.1,0 -9,-0.81 -11.81,-2.47c-3.67,-2.15 -5.6,-5.76 -5.6,-10.46c0,-0.06 0,-0.11 0,-0.17c-7.83,2.07 -12.95,5.5 -12.95,9.38c0,6.32 13.59,11.45 30.36,11.45c16.77,0 30.36,-5.13 30.36,-11.45c-0.01,-3.88 -5.13,-7.31 -12.95,-9.38Z" style="fill:#005a76;fill-rule:nonzero;"/><path d="M45.27,14.17c-0.409,-7.889 -7.011,-14.157 -14.91,-14.157c-7.899,0 -14.501,6.268 -14.91,14.157c0,0.25 0,0.51 0,0.76c0,8.25 6.68,10.45 14.93,10.45c8.25,0 14.93,-2.21 14.93,-10.45c-0.02,-0.26 -0.03,-0.51 -0.04,-0.76Z" style="fill:#005a76;fill-rule:nonzero;"/><path d="M56.2,64.91c-1.13,-3.27 -15.95,-5.41 -17.71,-7.17c-1.76,-1.76 -1.13,-6 -1.13,-6c7.8,-0.25 12.2,-3.15 12.2,-3.15c-3.6,-2.4 -3.2,-9.28 -4.79,-20l-28.83,0c-1.59,10.68 -1.19,17.56 -4.79,20c0,0 4.4,2.89 12.2,3.15c0,0 0.63,4.28 -1.13,6c-1.76,1.72 -16.57,3.9 -17.71,7.17l-2.85,8.14l57.34,0l-2.8,-8.14Z" style="fill:#005a76;fill-rule:nonzero;"/></g></svg>