<?xml version="1.0" encoding="UTF-8" standalone="no"?><!DOCTYPE svg PUBLIC "-//W3C//DTD SVG 1.1//EN" "http://www.w3.org/Graphics/SVG/1.1/DTD/svg11.dtd"><svg width="100%" height="100%" viewBox="0 0 64 64" version="1.1" xmlns="http://www.w3.org/2000/svg" xmlns:xlink="http://www.w3.org/1999/xlink" xml:space="preserve" style="fill-rule:evenodd;clip-rule:evenodd;stroke-linejoin:round;stroke-miterlimit:1.41421;"><g id="__1"><path d="M31.81,63.61c-0.003,0 -0.007,0 -0.01,0c-17.45,0 -31.81,-14.36 -31.81,-31.81c0,-17.45 14.36,-31.81 31.81,-31.81c17.45,0 31.81,14.36 31.81,31.81c-0.016,17.44 -14.36,31.788 -31.8,31.81Zm0,-59.82c-15.36,0 -28,12.64 -28,28c0,15.36 12.64,28 28,28c15.36,0 28,-12.64 28,-28c0,-15.36 -12.64,-28 -28,-28l0,0Z" style="fill:#005a76;fill-rule:nonzero;"/><circle cx="31.81" cy="31.81" r="3.03" style="fill:#005a76;"/><path d="M34.06,7.35c0,-0.839 -0.681,-1.52 -1.52,-1.52l-1.19,0c-0.839,0 -1.52,0.681 -1.52,1.52l0,3.32c0,0.839 0.681,1.52 1.52,1.52l1.19,0c0.839,0 1.52,-0.681 1.52,-1.52l0,-3.32Z" style="fill:#005a76;"/><path d="M28.81,35.71c-0.132,0 -0.263,-0.017 -0.39,-0.05c-0.388,-0.106 -0.719,-0.362 -0.92,-0.71l-0.59,-1c-0.134,-0.231 -0.204,-0.494 -0.204,-0.761c0,-0.544 0.292,-1.048 0.764,-1.319l14,-8.08c0.231,-0.134 0.494,-0.204 0.761,-0.204c0.544,0 1.048,0.292 1.319,0.764l0.59,1c0.134,0.231 0.204,0.494 0.204,0.761c0,0.544 -0.292,1.048 -0.764,1.319l-14,8.09c-0.235,0.13 -0.501,0.196 -0.77,0.19Z" style="fill:#005a76;fill-rule:nonzero;"/><path d="M57.78,31.21c0,-0.839 -0.681,-1.52 -1.52,-1.52l-3.32,0c-0.839,0 -1.52,0.681 -1.52,1.52l0,1.19c0,0.839 0.681,1.52 1.52,1.52l3.32,0c0.839,0 1.52,-0.681 1.52,-1.52l0,-1.19Z" style="fill:#005a76;"/><path d="M33.98,53.02c0,-0.839 -0.681,-1.52 -1.52,-1.52l-1.19,0c-0.839,0 -1.52,0.681 -1.52,1.52l0,3.32c0,0.839 0.681,1.52 1.52,1.52l1.19,0c0.839,0 1.52,-0.681 1.52,-1.52l0,-3.32Z" style="fill:#005a76;"/><path d="M12.19,31.35c0,-0.839 -0.681,-1.52 -1.52,-1.52l-3.32,0c-0.839,0 -1.52,0.681 -1.52,1.52l0,1.19c0,0.839 0.681,1.52 1.52,1.52l3.32,0c0.839,0 1.52,-0.681 1.52,-1.52l0,-1.19Z" style="fill:#005a76;"/><path d="M33.82,37.26c-0.132,0 -0.263,-0.017 -0.39,-0.05c-0.388,-0.105 -0.72,-0.361 -0.92,-0.71l-9.61,-16.63c-0.134,-0.231 -0.204,-0.494 -0.204,-0.761c0,-0.544 0.292,-1.048 0.764,-1.319l1,-0.59c0.231,-0.134 0.494,-0.204 0.761,-0.204c0.544,0 1.048,0.292 1.319,0.764l9.61,16.63c0.134,0.231 0.204,0.494 0.204,0.761c0,0.544 -0.292,1.048 -0.764,1.319l-1,0.6c-0.235,0.13 -0.501,0.196 -0.77,0.19Z" style="fill:#005a76;fill-rule:nonzero;"/></g></svg>